<?xml version="1.0" standalone="no"?>
<!DOCTYPE svg PUBLIC "-//W3C//DTD SVG 20010904//EN"
 "http://www.w3.org/TR/2001/REC-SVG-20010904/DTD/svg10.dtd">
<svg version="1.0" xmlns="http://www.w3.org/2000/svg"
 width="260.000000pt" height="260.000000pt" viewBox="0 0 260.000000 260.000000"
 preserveAspectRatio="xMidYMid meet">
<metadata>
Created by potrace 1.11, written by Peter Selinger 2001-2013
</metadata>
<g transform="translate(0.000000,260.000000) scale(0.100000,-0.100000)"
fill="#000000" stroke="none">
<path d="M0 1300 l0 -1300 1300 0 1300 0 0 1300 0 1300 -1300 0 -1300 0 0
-1300z m1440 808 c131 -31 273 -149 338 -280 59 -120 75 -208 70 -387 -4 -138
-7 -165 -32 -236 -48 -138 -131 -250 -236 -317 -145 -93 -391 -99 -560 -13
-98 50 -197 164 -246 286 -55 136 -68 368 -29 529 46 191 184 352 348 406 102
34 236 38 347 12z m270 -1643 l0 -85 -422 2 -423 3 -3 83 -3 82 426 0 425 0 0
-85z"/>
<path d="M1174 1924 c-96 -35 -176 -148 -204 -289 -16 -78 -16 -253 0 -330 29
-142 110 -256 205 -288 73 -25 179 -22 240 7 131 61 205 221 205 446 0 217
-71 378 -195 443 -52 27 -191 34 -251 11z"/>
</g>
</svg>
